<svg width="1400" height="1035" viewBox="0 0 1400 1035" fill="none" xmlns="http://www.w3.org/2000/svg">
<rect width="1400" height="1035" fill="#343D33"/>
<g opacity="0.07" clip-path="url(#clip0_4_444)">
<path fill-rule="evenodd" clip-rule="evenodd" d="M1481.43 784.767C1481.43 784.767 1472.99 764.958 1449.83 739.202C1439.32 727.493 1425.76 714.611 1408.52 701.683C1397.56 693.464 1385.14 685.228 1371.06 677.266C1353.38 667.269 1333.15 657.603 1309.81 649.311C1232.91 621.586 1141.93 583.012 1063.01 531.942C1009.57 497.354 961.684 457.049 927.325 410.706C922.845 404.659 919.574 399.216 916.669 393.132C914.049 387.671 911.722 381.698 909.047 374.276C908.653 373.241 909.175 372.077 910.219 371.683C911.255 371.298 912.418 371.821 912.803 372.865C915.616 380.058 918.035 385.848 920.728 391.126C923.66 396.861 926.913 401.983 931.348 407.655C966.348 452.513 1014.62 490.986 1068.1 523.888C1147.36 572.64 1238.15 609.033 1314.85 634.862C1339.27 643.218 1360.6 652.802 1378.99 663.265C1393.77 671.667 1406.69 680.563 1417.93 689.552C1435.62 703.726 1449.23 718.038 1459.53 731.03C1482.39 759.873 1489.15 781.972 1489.15 781.972C1489.92 784.098 1488.82 786.453 1486.69 787.231C1484.56 788.001 1482.2 786.893 1481.43 784.767Z" fill="white"/>
<path fill-rule="evenodd" clip-rule="evenodd" d="M946.923 434.729C946.923 434.729 945.063 433.831 942.049 432.127C940.666 431.339 939.053 430.422 937.312 429.295C933.354 426.739 928.7 423.349 923.294 420.609C917.934 417.897 912.088 415.542 906.023 414.58C905.326 414.525 904.814 413.912 904.868 413.215C904.923 412.519 905.537 412.006 906.234 412.061C914.47 412.153 922.735 414.498 929.946 417.458C932.814 418.64 935.498 419.895 937.907 421.214C939.749 422.222 941.472 423.202 942.92 424.247C944.422 425.337 945.641 426.437 946.649 427.408C948.93 429.589 950.048 431.055 950.048 431.055C951.065 431.916 951.184 433.437 950.323 434.454C949.462 435.471 947.94 435.59 946.923 434.729Z" fill="white"/>
<path fill-rule="evenodd" clip-rule="evenodd" d="M1006.48 490.48C1006.48 490.48 1004.76 490.919 1001.72 491.194C1000.38 491.313 998.793 491.405 997.006 491.313C995.283 491.213 993.405 490.892 991.417 490.507C988.815 490.012 986.057 489.288 983.208 488.381C976.079 486.118 968.585 482.674 962.519 477.414C961.96 476.993 961.841 476.205 962.262 475.646C962.675 475.087 963.472 474.968 964.031 475.38C969.042 478.55 974.742 480.447 980.313 481.748C985.956 483.058 991.453 483.361 995.934 483.856C997.904 484.075 999.645 484.377 1001.14 484.634C1004.41 485.193 1006.33 485.66 1006.33 485.66C1007.66 485.614 1008.77 486.659 1008.82 487.988C1008.86 489.316 1007.81 490.434 1006.48 490.48Z" fill="white"/>
<path fill-rule="evenodd" clip-rule="evenodd" d="M970.681 456.553C970.681 456.553 970.03 455.161 969.279 452.641C968.94 451.514 968.573 450.195 968.344 448.665C968.124 447.19 968.07 445.55 968.024 443.8C967.969 441.491 968.051 439.017 968.225 436.47C968.683 429.451 969.892 422.057 972.549 416.459C972.797 415.809 973.521 415.479 974.181 415.717C974.831 415.964 975.161 416.697 974.923 417.348C973.988 420.738 973.732 424.65 973.759 428.7C973.787 433.199 974.318 437.752 974.831 441.866C975.079 443.891 975.408 445.779 975.555 447.492C975.646 448.683 975.647 449.764 975.638 450.745C975.61 453.832 975.427 455.674 975.427 455.674C975.665 456.984 974.804 458.239 973.493 458.486C972.183 458.725 970.919 457.854 970.681 456.553Z" fill="white"/>
<path fill-rule="evenodd" clip-rule="evenodd" d="M1112.56 560.922C1112.56 560.922 1107.41 561.398 1099.08 562.131C1095.19 562.47 1090.64 562.883 1085.58 563.258C1073.9 564.138 1059.6 565.091 1045.23 567.5C1029.96 570.066 1014.6 573.905 1002.15 579.971C1001.53 580.291 1000.77 580.053 1000.44 579.439C1000.12 578.825 1000.36 578.056 1000.98 577.735C1016.32 569.058 1036.48 563.488 1055.46 559.978C1062.55 558.677 1069.45 557.633 1075.9 556.891C1080.8 556.332 1085.41 555.864 1089.61 555.663C1093.94 555.452 1097.81 555.47 1101.09 555.525C1108.28 555.654 1112.6 556.103 1112.6 556.103C1113.94 556.112 1115.01 557.202 1114.99 558.531C1114.98 559.859 1113.89 560.931 1112.56 560.922Z" fill="white"/>
<path fill-rule="evenodd" clip-rule="evenodd" d="M1043.12 595.317C1041.76 589.435 1043.25 582.508 1045.59 576.232C1046.57 573.584 1047.71 571.101 1048.89 568.883C1049.46 567.821 1050 566.804 1050.62 565.924C1051.27 565.017 1051.95 564.247 1052.6 563.588C1054.66 561.48 1056.1 560.473 1056.1 560.473C1056.94 559.447 1058.44 559.291 1059.47 560.124C1060.49 560.958 1060.65 562.461 1059.81 563.487C1059.81 563.487 1059.34 564.797 1058.29 566.941C1057.82 567.903 1057.29 569.039 1056.56 570.24C1055.48 571.999 1054.01 573.849 1052.68 575.948C1050.89 578.77 1049.09 581.793 1047.78 584.982C1046.39 588.344 1045.43 591.725 1045.55 594.996C1045.63 595.665 1045.16 596.279 1044.5 596.37C1043.83 596.462 1043.21 595.986 1043.12 595.317Z" fill="white"/>
<path fill-rule="evenodd" clip-rule="evenodd" d="M1105.79 646.305C1120.02 632.772 1140.54 623.436 1160.43 617.15C1169.2 614.383 1177.82 612.194 1185.72 610.544C1189.58 609.738 1193.27 609.024 1196.73 608.529C1200.32 608.007 1203.65 607.676 1206.62 607.447C1215.84 606.733 1221.59 606.907 1221.59 606.907C1222.91 606.834 1224.04 607.842 1224.11 609.152C1224.2 610.471 1223.19 611.598 1221.87 611.681C1221.87 611.681 1215.11 612.661 1204.58 614.576C1202.77 614.906 1200.84 615.245 1198.82 615.593C1196.98 615.895 1195.05 616.198 1193.05 616.519C1180.52 618.516 1165.32 621.429 1150.39 626.212C1134.6 631.27 1119.11 638.224 1107.43 648.119C1106.93 648.577 1106.16 648.531 1105.7 648.027C1105.25 647.524 1105.3 646.754 1105.79 646.305Z" fill="white"/>
<path fill-rule="evenodd" clip-rule="evenodd" d="M1166.18 654.093C1164.86 647.9 1167.66 639.012 1171.47 630.803C1172.91 627.679 1174.49 624.682 1176.07 621.998C1176.82 620.715 1177.55 619.479 1178.33 618.407C1179.15 617.298 1179.98 616.345 1180.75 615.511C1183.19 612.909 1184.9 611.553 1184.9 611.553C1185.73 610.518 1187.23 610.344 1188.27 611.159C1189.29 611.984 1189.47 613.486 1188.65 614.522C1188.65 614.522 1187.93 616.171 1186.5 618.81C1185.85 620.019 1185.1 621.43 1184.12 622.923C1182.67 625.15 1180.78 627.514 1179 630.134C1176.57 633.717 1174.08 637.556 1172.18 641.386C1169.96 645.848 1168.39 650.145 1168.59 653.773C1168.69 654.442 1168.22 655.056 1167.55 655.148C1166.88 655.239 1166.27 654.762 1166.18 654.093Z" fill="white"/>
<path fill-rule="evenodd" clip-rule="evenodd" d="M1261.64 710.028C1274.47 691.126 1291.97 680.104 1309.11 673.745C1317.65 670.575 1326.1 668.568 1333.86 667.377C1337.69 666.791 1341.34 666.36 1344.76 666.186C1348.31 666.003 1351.58 666.058 1354.49 666.205C1363.48 666.663 1369.06 667.973 1369.06 667.973C1370.37 668.156 1371.27 669.365 1371.08 670.676C1370.9 671.977 1369.69 672.884 1368.39 672.701C1368.39 672.701 1363 672.463 1354.48 672.884C1351.7 673.012 1348.59 673.241 1345.21 673.489C1340.97 673.8 1336.29 674.139 1331.36 674.845C1324.92 675.77 1318.02 677.154 1311.01 679.344C1294.29 684.557 1276.96 694.095 1263.62 711.458C1263.22 712.007 1262.45 712.126 1261.91 711.732C1261.36 711.338 1261.24 710.569 1261.64 710.028Z" fill="white"/>
<path fill-rule="evenodd" clip-rule="evenodd" d="M1047.46 428.16C1043.09 438.174 1042.53 451.35 1043.54 464.58C1044.43 476.326 1046.72 488.063 1048.83 497.693C1049.16 499.214 1049.48 500.67 1049.75 502.081C1050.06 503.62 1050.33 505.096 1050.58 506.488C1051.98 514.57 1052.94 519.756 1052.94 519.756C1053.33 521.011 1052.62 522.349 1051.36 522.733C1050.1 523.118 1048.76 522.413 1048.38 521.149C1048.38 521.149 1046.23 516.146 1043.82 508.083C1043.41 506.69 1043.01 505.206 1042.63 503.639C1042.29 502.201 1041.98 500.698 1041.7 499.14C1039.84 489.162 1038.35 476.931 1038.24 464.809C1038.13 450.919 1039.91 437.203 1045.25 427.097C1045.55 426.492 1046.28 426.236 1046.89 426.529C1047.5 426.822 1047.76 427.555 1047.46 428.16Z" fill="white"/>
<path fill-rule="evenodd" clip-rule="evenodd" d="M1157.74 496.536C1154.66 509.382 1156.9 523.473 1161.23 536.814C1165.28 549.284 1171.3 561.002 1176.65 570.449C1177.49 571.942 1178.3 573.372 1179.07 574.764C1179.92 576.276 1180.71 577.733 1181.45 579.116C1185.72 587.069 1188.69 592.099 1188.69 592.099C1189.48 593.153 1189.25 594.656 1188.2 595.434C1187.14 596.222 1185.64 596.002 1184.86 594.939C1184.86 594.939 1180.79 590.432 1175.52 582.708C1174.61 581.38 1173.69 579.941 1172.76 578.401C1171.92 577 1171.09 575.507 1170.27 573.949C1164.99 564.008 1159.56 551.446 1156.15 538.298C1152.46 524.05 1151.24 509.116 1155.37 495.886C1155.55 495.235 1156.22 494.85 1156.87 495.033C1157.52 495.208 1157.91 495.886 1157.74 496.536Z" fill="white"/>
<path fill-rule="evenodd" clip-rule="evenodd" d="M1261.19 536.541C1259.64 550.165 1261.62 563.945 1265.03 576.69C1268.49 589.572 1273.57 601.309 1278.12 610.701C1278.85 612.222 1279.57 613.678 1280.23 615.08C1280.97 616.629 1281.65 618.104 1282.29 619.496C1286.01 627.642 1288.62 632.654 1288.62 632.654C1289.35 633.753 1289.05 635.228 1287.95 635.961C1286.86 636.694 1285.37 636.392 1284.64 635.292C1284.64 635.292 1281.55 631.554 1277.44 624.884C1276.12 622.74 1274.71 620.303 1273.32 617.573C1271.99 614.952 1270.72 612.048 1269.45 608.96C1266.88 602.72 1264.38 595.665 1262.32 588.115C1257.94 572.054 1255.54 553.766 1258.77 536.184C1258.86 535.515 1259.48 535.056 1260.15 535.148C1260.82 535.249 1261.29 535.872 1261.19 536.541Z" fill="white"/>
<path fill-rule="evenodd" clip-rule="evenodd" d="M1303.66 567.491C1294.69 573.612 1289.15 580.758 1285.6 587.584C1284 590.654 1282.87 593.659 1281.99 596.454C1281.3 598.653 1280.86 600.732 1280.39 602.601C1280.02 604.113 1279.63 605.478 1279.33 606.706C1278.4 610.527 1278.01 612.891 1278.01 612.891C1278.09 614.201 1277.08 615.337 1275.77 615.42C1274.45 615.502 1273.32 614.494 1273.24 613.184C1273.24 613.184 1272.58 610.408 1272.72 605.808C1272.76 604.361 1272.91 602.748 1273.25 601.007C1273.58 599.349 1274.13 597.608 1274.79 595.794C1276.09 592.239 1277.94 588.409 1280.51 584.561C1285.14 577.689 1292.02 570.753 1302.41 565.384C1302.99 565.045 1303.75 565.228 1304.08 565.815C1304.43 566.392 1304.24 567.143 1303.66 567.491Z" fill="white"/>
<path fill-rule="evenodd" clip-rule="evenodd" d="M904.863 325.065C913.054 324.506 919.385 327.593 924.031 332.816C926.999 336.142 929.18 340.43 930.673 345.24C932.121 349.913 932.854 355.117 932.927 360.477C933.083 372.388 929.958 385.069 924.717 394.772L923.545 397.007L921.089 396.384C908.243 392.857 898.66 378.334 894.418 363.07C891.294 351.809 891 340.302 893.959 333.118C896.048 328.042 899.649 324.955 904.863 325.065ZM920.182 389.403C910.232 385.591 902.975 373.763 899.109 361.668C895.865 351.535 894.995 341.099 897.405 334.456C898.752 330.764 901.124 328.308 904.863 328.226C910.378 328.62 914.52 330.892 917.699 334.245C920.823 337.544 922.821 342.015 924.104 347.091C925.158 351.269 925.661 355.841 925.726 360.569C925.836 370.418 923.966 380.891 920.182 389.403Z" fill="white"/>
<path fill-rule="evenodd" clip-rule="evenodd" d="M867.385 400.177C869.108 393.626 874.119 390.236 880.569 389.283C884.042 388.77 887.964 389.118 892.013 390.135C895.852 391.097 899.81 392.728 903.594 394.899C912.005 399.728 919.537 407.214 923.678 415.625L925.227 418.667L922.102 420.022C912.729 423.843 893.782 425.896 880.707 422.249C873.954 420.371 868.75 416.999 866.817 411.896C865.608 408.726 865.58 404.85 867.385 400.177ZM916.119 415.487C907.039 418.566 892.453 420.242 881.825 417.842C873.121 415.863 867.165 411.016 870.363 401.24C872.067 397.529 875.146 395.798 878.838 395.239C882.21 394.726 886.076 395.376 890.144 396.695C893.397 397.74 896.732 399.261 900.003 401.148C906.224 404.73 912.161 409.651 916.119 415.487Z" fill="white"/>
<path fill-rule="evenodd" clip-rule="evenodd" d="M908.36 456.507L910.183 456.086C916.835 454.262 924.513 452.952 932.338 453.071C937.395 453.153 942.49 453.859 947.364 455.242C959.33 458.66 969.958 466.219 975.914 479.642L977.123 482.281L974.457 483.435C965.084 487.329 949.655 490.554 935.691 486.138C924.807 482.693 914.719 474.703 909.175 458.724L908.36 456.507ZM913.097 459.943C920.189 458.843 928.242 458.706 936.186 459.732C941.582 460.429 946.952 461.638 951.918 463.846C958.881 466.943 965.075 471.845 969.372 479.395C960.869 482.675 948.482 485.066 936.965 481.85C927.518 479.202 918.714 472.742 913.097 459.943Z" fill="white"/>
<path fill-rule="evenodd" clip-rule="evenodd" d="M950.787 580.209L952.005 579.164C957.329 574.171 963.715 569.965 970.761 567.024C975.369 565.091 980.262 563.726 985.219 562.956C997.872 560.986 1010.97 562.901 1021.93 569.214L1024.72 570.771L1022.89 573.373C1017.97 580.108 1004.8 592.807 989.104 596.105C977.403 598.561 964.274 595.996 952.216 581.831L950.787 580.209ZM956.147 581.39C961.131 577.744 966.903 574.922 972.978 572.796C977.266 571.294 981.71 570.176 986.218 569.489C996.406 567.941 1006.91 568.655 1016.15 572.769C1010.85 579.283 1000.44 588.693 988.105 591.708C978.136 594.145 966.949 592.303 956.147 581.39Z" fill="white"/>
<path fill-rule="evenodd" clip-rule="evenodd" d="M1016.48 629.575V627.88C1016.35 625.387 1016.67 616.005 1019.73 606C1021.14 601.364 1023.24 596.645 1025.91 592.403C1030.66 584.871 1037.41 578.934 1046.49 577.413L1048.42 577.056L1049.46 578.724C1055.18 588.262 1055.51 602.454 1048.74 613.449C1043.38 622.153 1033.65 628.942 1018.7 629.455L1016.48 629.575ZM1045.61 583.579C1049.73 591.404 1049.81 602.335 1044.83 611.149C1040.65 618.598 1032.89 624.517 1020.97 626.056C1021.52 622.492 1023.11 615.492 1025.82 608.043C1027.31 603.947 1029.08 599.678 1031.44 595.839C1034.85 590.268 1039.34 585.485 1045.61 583.579Z" fill="white"/>
<path fill-rule="evenodd" clip-rule="evenodd" d="M1060.3 671.949L1061.63 670.346C1066.56 663.905 1072.19 656.3 1078.71 649.685C1083.11 645.223 1087.94 641.255 1092.9 638.13C1102.64 631.992 1113.1 629.298 1123.53 633.174L1126.52 634.237L1125.16 637.104C1120.98 645.469 1111.01 666.433 1094.69 674.624C1085.85 679.059 1075.17 679.929 1062.55 673.122L1060.3 671.949ZM1066.44 671.436C1071.42 665.966 1077.18 659.937 1083.21 654.312C1087.46 650.344 1091.82 646.551 1096.39 643.601C1103.46 639.02 1110.91 636.271 1118.57 637.746C1114.32 646.981 1106.09 663.62 1092.74 670.877C1085.53 674.798 1076.82 675.87 1066.44 671.436Z" fill="white"/>
<path fill-rule="evenodd" clip-rule="evenodd" d="M1095.09 572.464L1096.87 572.73C1102.94 573.399 1111.54 575.882 1120.56 579.941C1125.38 582.113 1130.3 584.751 1135.02 587.729C1148.15 596.039 1159.6 606.979 1163.57 617.763L1164.85 621.135L1161.27 621.63C1142.35 624.012 1127.42 620.356 1116.57 613.604C1101.35 604.112 1094.08 588.526 1094.97 574.773L1095.09 572.464ZM1098.14 577.385C1104.57 578.988 1113.17 582.864 1122.02 587.747C1127.4 590.707 1132.9 594.005 1137.96 597.661C1145.87 603.369 1152.79 609.765 1156.57 616.444C1140.94 618.157 1128.35 615.243 1118.91 609.737C1105.68 602.022 1098.64 589.287 1098.14 577.385Z" fill="white"/>
<path fill-rule="evenodd" clip-rule="evenodd" d="M1229.32 749.857L1229.78 747.658C1230.51 743.031 1231.39 738.386 1232.53 733.86C1233.71 729.169 1235.1 724.597 1236.77 720.345C1239.32 713.867 1242.48 708.104 1245.93 703.459C1254.25 692.281 1264.63 687.508 1276.15 694.16L1278.86 695.68L1277.07 698.209C1274.62 701.581 1273.67 707.5 1272.08 714.014C1270.02 722.416 1267.12 731.725 1260.14 738.743C1254.29 744.625 1245.59 748.987 1231.98 749.674L1229.32 749.857ZM1234.6 746.22C1235.6 742.592 1236.74 739 1237.94 735.454C1239.42 731.074 1241.09 726.841 1242.81 722.828C1245.33 716.946 1248.03 711.577 1251.13 707.262C1256.66 699.565 1263.23 695.167 1270.96 697.925C1269.34 701.819 1268.37 707.124 1267.15 712.896C1265.52 720.611 1263.28 729.242 1257.14 735.857C1252.39 740.96 1245.35 744.827 1234.6 746.22Z" fill="white"/>
<path fill-rule="evenodd" clip-rule="evenodd" d="M1231.99 651.7L1234.08 652.369C1239.47 653.835 1247.68 652.406 1256.64 651.692C1260.57 651.371 1264.63 651.178 1268.66 651.325C1272.86 651.48 1277.01 652.049 1280.94 653.121C1291.2 655.925 1300 662.301 1304.21 676.182L1305.21 679.389L1301.89 679.856C1280.89 682.468 1264.01 682.349 1252.19 679.087C1238.23 675.239 1231.01 667.176 1231.86 654.33L1231.99 651.7ZM1235.06 657.115C1240.67 658.407 1248.52 658.087 1256.95 657.913C1260.69 657.83 1264.55 657.784 1268.37 657.968C1272.1 658.142 1275.79 658.499 1279.29 659.379C1286.93 661.312 1293.61 665.627 1297.58 674.744C1279.07 677.392 1264.05 677.63 1253.25 675.009C1242.18 672.325 1235.75 666.562 1235.06 657.115Z" fill="white"/>
<path fill-rule="evenodd" clip-rule="evenodd" d="M1139.81 687.884V686.189C1139.68 683.697 1140.01 674.314 1143.06 664.309C1144.48 659.673 1146.58 654.954 1149.25 650.712C1154 643.181 1160.75 637.234 1169.82 635.722L1171.75 635.365L1172.8 637.032C1178.51 646.57 1178.85 660.754 1172.08 671.758C1166.72 680.462 1156.98 687.242 1142.04 687.765L1139.81 687.884ZM1168.94 641.889C1173.06 649.713 1173.14 660.644 1168.17 669.458C1163.98 676.907 1156.22 682.817 1144.3 684.356C1144.85 680.801 1146.44 673.792 1149.15 666.352C1150.64 662.247 1152.41 657.987 1154.77 654.148C1158.18 648.577 1162.68 643.795 1168.94 641.889Z" fill="white"/>
<path fill-rule="evenodd" clip-rule="evenodd" d="M986.678 378.032C992.927 379.599 996.235 384.409 997.178 390.75C997.673 394.048 997.362 397.805 996.418 401.736C995.538 405.382 994.036 409.184 992.002 412.886C987.732 420.674 981.116 428.013 973.338 433.098L970.763 434.83L968.949 432.32C962.086 422.323 961.234 410.009 963.882 399.546C965.742 392.243 969.242 385.885 973.383 381.927C977.507 377.987 982.234 376.337 986.678 378.032ZM972.311 425.86C967.657 418.054 967.016 408.744 968.647 400.627C970.214 392.829 973.805 386.059 978.23 382.742C980.567 380.992 983.105 380.204 985.643 381.01C989.124 382.604 990.719 385.536 991.232 389.1C991.69 392.298 991.076 395.972 989.839 399.912C988.859 403.009 987.448 406.225 985.689 409.423C982.399 415.406 977.864 421.325 972.311 425.86Z" fill="white"/>
<path fill-rule="evenodd" clip-rule="evenodd" d="M1052.49 368.557L1053.37 369.181C1061.76 374.641 1066.71 382.768 1068.65 391.811C1069.93 397.739 1069.83 404.071 1068.71 410.2C1065.72 426.564 1055.19 441.517 1042.21 445.897L1039.68 446.785L1038.72 444.284C1034.1 431.75 1031.85 417.841 1033.25 404.867C1034.73 391.225 1040.2 378.617 1051.11 369.721L1052.49 368.557ZM1051.77 373.386C1057.98 378.553 1061.17 385.544 1062.41 392.993C1063.29 398.216 1063.2 403.686 1062.26 409.036C1059.95 422.157 1052.73 434.618 1042.84 439.62C1038.8 428.635 1036.72 416.623 1037.61 405.271C1038.55 393.176 1042.84 381.843 1051.77 373.386Z" fill="white"/>
<path fill-rule="evenodd" clip-rule="evenodd" d="M1075.37 439.611L1075.81 440.867C1078.64 447.638 1079.59 453.492 1078.98 458.458C1078.4 463.103 1076.45 466.979 1073.69 470.076C1067.65 476.874 1057.2 479.953 1045.8 479.742H1043.04V476.985C1043.31 464.863 1046.18 456.965 1050.25 451.687C1056.67 443.368 1066.09 441.462 1073.44 440.033L1075.37 439.611ZM1072.12 443.615C1073.45 449.03 1073.47 453.593 1072.71 457.459C1072.06 460.758 1070.73 463.498 1068.77 465.743C1064.3 470.873 1056.9 473.503 1048.55 474.098C1048.72 464.945 1050.71 458.669 1053.78 454.28C1058.62 447.353 1065.95 445.145 1072.12 443.615Z" fill="white"/>
<path fill-rule="evenodd" clip-rule="evenodd" d="M1145.63 427.471L1146.64 427.846C1156.25 431.044 1163.3 438.145 1167.64 447.097C1170.38 452.722 1171.97 459.099 1172.59 465.549C1174.29 483.306 1168.25 501.658 1156.82 509.199L1154.59 510.702L1153.03 508.53C1143.85 495.419 1136.96 477.992 1136.1 461.344C1135.51 449.543 1137.91 438.145 1144.6 428.946L1145.63 427.471ZM1146.17 432.327C1153.63 435.809 1158.63 442.241 1161.89 449.745C1164.09 454.848 1165.49 460.464 1166.07 466.191C1167.51 480.475 1164.09 495.419 1155.82 502.95C1147.61 491.076 1141.42 475.821 1140.24 461.078C1139.41 450.78 1141.02 440.738 1146.17 432.327Z" fill="white"/>
<path fill-rule="evenodd" clip-rule="evenodd" d="M1108.38 513.029L1109.6 512.754C1117.89 510.455 1125.53 510.216 1132.45 512.012C1137.52 513.332 1142.18 515.768 1146.39 519.14C1154.88 525.948 1161.5 536.787 1166.21 550.934L1167.67 555.112L1163.26 554.663C1149.29 553.013 1132.15 551.227 1120.86 541.918C1113.97 536.237 1109.12 527.826 1108.51 514.944L1108.38 513.029ZM1111.86 516.712C1118.81 515.64 1125.05 516.208 1130.71 518.032C1134.9 519.379 1138.74 521.458 1142.27 524.28C1149.15 529.769 1154.87 537.969 1159.3 548.679C1147.06 547.644 1133.17 546.096 1123.47 538.638C1117.47 534.038 1113.16 527.148 1111.86 516.712Z" fill="white"/>
<path fill-rule="evenodd" clip-rule="evenodd" d="M1193.3 489.519L1193.74 490.783C1196.7 498.067 1197.23 505.168 1195.82 511.6C1194.77 516.364 1192.61 520.735 1189.8 524.538C1182.53 534.35 1170.6 540.343 1159.21 540.168H1156.44V537.392C1156.67 524.775 1160.53 514.935 1165.85 507.56C1173.58 496.858 1184.33 491.342 1191.37 489.941L1193.3 489.519ZM1190.07 493.605C1191.51 499.524 1191.11 505.04 1189.68 510.061C1188.58 513.937 1186.82 517.492 1184.51 520.653C1179.04 528.138 1170.64 533.37 1162.01 534.424C1162.33 524.382 1165.31 516.319 1169.46 510.061C1175.47 501.027 1183.81 495.694 1190.07 493.605Z" fill="white"/>
<path fill-rule="evenodd" clip-rule="evenodd" d="M1255.26 460.356L1257.28 461.116C1267 464.397 1274.9 473.045 1279.84 483.939C1282.75 490.353 1284.57 497.564 1285.3 504.701C1287.45 525.775 1279.78 546.234 1261.16 549.129L1259.99 549.322L1259.04 548.589C1250.42 541.727 1246.43 533.535 1245.21 524.501C1242.69 505.966 1252.22 483.747 1254.95 462.939L1255.26 460.356ZM1257.77 466.073C1265.02 469.921 1270.36 477.581 1273.99 486.468C1276.41 492.396 1278.09 498.902 1278.8 505.388C1280.68 522.687 1276.14 540.096 1261.41 543.504C1251.97 535.872 1249.24 526.123 1249.4 515.385C1249.64 499.974 1255.61 482.611 1257.77 466.073Z" fill="white"/>
<path fill-rule="evenodd" clip-rule="evenodd" d="M1336.92 529.788L1337.23 530.658C1340.22 538.043 1340 544.915 1337.72 550.998C1336.67 553.784 1335.17 556.404 1333.28 558.786C1324.48 569.882 1307.93 576.13 1295.04 575.974H1293.23L1292.48 574.316C1288.3 564.577 1291.48 554.91 1298.49 547.049C1307.72 536.705 1323.48 529.559 1335.21 529.788H1336.92ZM1333.44 533.04C1335.04 539.335 1333.99 544.859 1331.5 549.679C1329.66 553.197 1327.03 556.321 1323.86 559.033C1316.31 565.511 1305.92 569.662 1296.9 570.276C1294.41 563.184 1297.07 556.111 1302.05 550.1C1309.75 540.81 1322.91 533.92 1333.44 533.04Z" fill="white"/>
</g>
<defs>
<clipPath id="clip0_4_444">
<rect width="534" height="462" fill="white" transform="matrix(-1 0 0 1 1400 325)"/>
</clipPath>
</defs>
</svg>
